<svg xmlns="http://www.w3.org/2000/svg" viewBox="0 0 613.81 154.23"><defs><style>.cls-1{fill:#3b86ef;}.cls-2{fill:#e89f23;}</style></defs><g id="Layer_2" data-name="Layer 2"><g id="Layer_1-2" data-name="Layer 1"><path class="cls-1" d="M29.53,142,3.76,154c-1.67.76-3.76-.2-3.76-1.74V30.81a2,2,0,0,1,1.27-1.74L27.05,17.16c1.67-.76,3.75.2,3.75,1.74V140.3A2,2,0,0,1,29.53,142Z"/><path class="cls-1" d="M77,65.42,47.81,52.3c-1.67-.75-3.74.22-3.74,1.75v74a2,2,0,0,0,1.28,1.75l29.22,13.11c1.67.75,3.74-.21,3.74-1.74v-74A2,2,0,0,0,77,65.42Z"/><circle class="cls-2" cx="50.42" cy="21.06" r="5.6"/><circle class="cls-2" cx="50.08" cy="36.63" r="5.6"/><circle class="cls-2" cx="50.76" cy="5.6" r="5.6" transform="translate(37.1 54.81) rotate(-80.78)"/><circle class="cls-2" cx="63.62" cy="28.21" r="4.57"/><circle class="cls-2" cx="75.12" cy="35.78" r="3.71"/><circle class="cls-2" cx="75.12" cy="51.34" r="3.71"/><circle class="cls-2" cx="75.12" cy="20.31" r="3.71"/><circle class="cls-2" cx="63.62" cy="12.74" r="4.57"/><circle class="cls-2" cx="63.62" cy="43.68" r="4.57"/><path class="cls-2" d="M535.17,115.65h-7.53q-4.35,0-6.07-1.77c-1.15-1.17-1.73-3.35-1.73-6.52V81h14.84a18.72,18.72,0,0,1,4.85-3.87A22.36,22.36,0,0,1,542,76H519.84V64.58H514V76H507.2v5H514v26.36q0,7.31,3.2,10.38t9.69,3.08h14.75c-.33-.16-.67-.29-1-.47A18.88,18.88,0,0,1,535.17,115.65Z"/><path class="cls-1" d="M146.58,79.55q4.72,5.19,4.72,14.61v26.58H139.73V95.48c0-3.63-.93-6.45-2.81-8.46a10,10,0,0,0-7.67-3,10.29,10.29,0,0,0-7.93,3.22q-3,3.23-3,9.25v24.27H106.71V59.65h11.64V84.17a14.63,14.63,0,0,1,6-7.23,17.89,17.89,0,0,1,9.62-2.6Q141.89,74.34,146.58,79.55Z"/><path class="cls-1" d="M212.39,100.1H178.87q.24,6.12,3.3,9a10.63,10.63,0,0,0,7.59,2.89,11,11,0,0,0,6.73-2,8.8,8.8,0,0,0,3.43-5.37h12.3a19.69,19.69,0,0,1-3.88,8.59,20.45,20.45,0,0,1-7.64,6,26.22,26.22,0,0,1-22.25-.71,20,20,0,0,1-8.09-8.13,28.43,28.43,0,0,1,0-25,19.89,19.89,0,0,1,8.09-8.14,24.59,24.59,0,0,1,11.89-2.8,24.22,24.22,0,0,1,11.85,2.8A19.8,19.8,0,0,1,210,85a22.6,22.6,0,0,1,2.36,15.15ZM198.14,86.48a11.22,11.22,0,0,0-7.8-2.89,11.43,11.43,0,0,0-7.92,2.89q-3.22,2.89-3.55,8.5h22.2c.15-3.74-.82-6.57-2.93-8.5Z"/><path class="cls-1" d="M257.13,77.15A14.87,14.87,0,0,1,263,84.5V75h11.55V120.7H263v-9.57a15.07,15.07,0,0,1-5.87,7.39,17.36,17.36,0,0,1-9.9,2.76,19.67,19.67,0,0,1-10.41-2.81,18.89,18.89,0,0,1-7.22-8.13,31.4,31.4,0,0,1,0-25,19,19,0,0,1,7.22-8.14,19.75,19.75,0,0,1,10.41-2.8A17.51,17.51,0,0,1,257.13,77.15Zm-15,11q-3.3,3.55-3.31,9.74t3.31,9.71a12.53,12.53,0,0,0,17.46-.09q3.42-3.58,3.43-9.62a13.55,13.55,0,0,0-3.43-9.7,11.54,11.54,0,0,0-8.71-3.59,11.4,11.4,0,0,0-8.77,3.53Z"/><path class="cls-1" d="M305,59.65v61.09H293.38V59.65Z"/><path class="cls-1" d="M348.3,110.76v10h-6.11q-7.68,0-11.76-3.71t-4.13-12.41V84.83H320V75h6.35V63.69h11.64V75H348.2v9.83H338v20q0,3.3,1.32,4.62c.89.88,2.37,1.33,4.46,1.33Z"/><path class="cls-1" d="M404.76,79.55q4.71,5.19,4.7,14.61v26.58H397.9V95.48q0-5.45-2.8-8.46a10,10,0,0,0-7.68-3,10.29,10.29,0,0,0-7.93,3.22q-3,3.23-3,9.25v24.27H364.88V59.65h11.64V84.17a14.63,14.63,0,0,1,6-7.23,17.77,17.77,0,0,1,9.61-2.6Q400.07,74.34,404.76,79.55Z"/><path class="cls-2" d="M428.78,58.78a6,6,0,0,1,7.43,0,4.66,4.66,0,0,1,.09,6.6l-.09.09a6,6,0,0,1-7.43,0,4.7,4.7,0,0,1,0-6.65Zm7.43,16.64v45.32H428.7V75.42Z"/><path class="cls-2" d="M493.18,79.75q4.88,5.09,4.87,14.66v26.33h-7.51V95.07q0-6.76-3.47-10.41T477.66,81a12.88,12.88,0,0,0-9.91,4Q464,89,464,96.71v24h-7.52V75.42H464V86.15a15.36,15.36,0,0,1,6.15-8.5,17.76,17.76,0,0,1,10.19-3Q488.3,74.66,493.18,79.75Z"/><path class="cls-2" d="M587.88,99.69H551.64q.24,7.77,4.41,11.64a14.43,14.43,0,0,0,10.2,3.88,14.8,14.8,0,0,0,9.12-2.76,11.46,11.46,0,0,0,4.5-7.39h8a18.89,18.89,0,0,1-11.06,14.2,24.71,24.71,0,0,1-10.24,2.06A23.3,23.3,0,0,1,555,118.51a19.73,19.73,0,0,1-7.89-8.05,25.56,25.56,0,0,1-2.82-12.34,25.85,25.85,0,0,1,2.84-12.38A19.71,19.71,0,0,1,555,77.65a23.32,23.32,0,0,1,11.56-2.81,22.94,22.94,0,0,1,11.52,2.81,19.23,19.23,0,0,1,7.51,7.51,21.24,21.24,0,0,1,2.6,10.4A22.87,22.87,0,0,1,587.88,99.69Zm-8.92-12a12,12,0,0,0-5.2-5A15.82,15.82,0,0,0,566.58,81a14.83,14.83,0,0,0-10.4,3.84Q552,88.67,551.64,96.1h29A15.33,15.33,0,0,0,579,87.64Z"/><path class="cls-2" d="M613.81,59.65v61.09H606.3V59.65Z"/></g></g></svg>